<?xml version="1.0" encoding="utf-8"?>
<!-- Generator: Adobe Illustrator 24.2.1, SVG Export Plug-In . SVG Version: 6.00 Build 0)  -->
<svg version="1.1" id="Layer_1" xmlns="http://www.w3.org/2000/svg" xmlns:xlink="http://www.w3.org/1999/xlink" x="0px" y="0px"
	 viewBox="0 0 347.8 80" style="enable-background:new 0 0 347.8 80;" xml:space="preserve">
<style type="text/css">
	.st0{fill:#575756;}
	.st1{fill:#9845A8;}
	.st2{clip-path:url(#SVGID_2_);}
	.st3{fill:url(#path138_1_);}
	.st4{clip-path:url(#SVGID_4_);}
	.st5{fill:url(#path158_1_);}
	.st6{fill:#372983;}
</style>
<g>
	<path class="st0" d="M39.395,71.509c0.092-0.227,0.252-0.333,0.677-0.333s0.585,0.106,0.678,0.333l3.143,8.116
		c0.025,0.067-0.238,0.266-0.518,0.266c-0.213,0-0.426-0.092-0.543-0.411l-0.944-2.441h-3.686l-0.93,2.441
		c-0.121,0.319-0.319,0.411-0.518,0.411c-0.266,0-0.532-0.199-0.504-0.266L39.395,71.509z M41.598,76.244l-1.554-4.033l-1.55,4.033
		H41.598z"/>
	<path class="st0" d="M47.396,71.774c0-0.333,0.266-0.571,0.649-0.571h0.213c0.465,0,0.585,0.213,0.784,0.678l2.253,5.002
		l2.27-5.002c0.199-0.465,0.319-0.678,0.784-0.678h0.184c0.383,0,0.649,0.238,0.649,0.571v7.709c0,0.277-0.121,0.408-0.383,0.408
		h-0.106c-0.252,0-0.372-0.131-0.372-0.408v-7.244l-2.256,4.895c-0.16,0.358-0.344,0.568-0.78,0.568
		c-0.45,0-0.624-0.209-0.784-0.568l-2.242-4.895v7.244c0,0.277-0.106,0.408-0.373,0.408h-0.131c-0.252,0-0.358-0.131-0.358-0.408
		V71.774z"/>
	<path class="st0" d="M57.227,71.76c0-0.277,0.227-0.504,0.504-0.504h5.137c0.262,0,0.408,0.131,0.408,0.373v0.078
		c0,0.252-0.145,0.373-0.408,0.373h-4.739v2.958h3.796c0.266,0,0.411,0.131,0.411,0.369v0.053c0,0.252-0.145,0.372-0.411,0.372
		h-3.796v3.186h4.817c0.266,0,0.411,0.117,0.411,0.358v0.078c0,0.252-0.145,0.387-0.411,0.387h-5.215
		c-0.277,0-0.504-0.227-0.504-0.507V71.76z"/>
	<path class="st0" d="M64.869,71.774c0-0.333,0.266-0.571,0.649-0.571h0.213c0.465,0,0.585,0.213,0.784,0.678l2.256,5.002
		l2.267-5.002c0.199-0.465,0.319-0.678,0.784-0.678h0.184c0.383,0,0.649,0.238,0.649,0.571v7.709c0,0.277-0.121,0.408-0.383,0.408
		h-0.106c-0.252,0-0.372-0.131-0.372-0.408v-7.244l-2.256,4.895c-0.16,0.358-0.344,0.568-0.78,0.568
		c-0.45,0-0.624-0.209-0.784-0.568l-2.242-4.895v7.244c0,0.277-0.106,0.408-0.373,0.408h-0.131c-0.252,0-0.358-0.131-0.358-0.408
		V71.774z"/>
	<path class="st0" d="M74.7,71.761c0-0.28,0.227-0.504,0.504-0.504h2.746c1.82,0,2.799,0.795,2.799,2.253
		c0,0.905-0.514,1.554-1.483,1.873c1.274,0.277,1.855,1.086,1.855,2.082c0,1.564-0.993,2.373-3.09,2.373h-2.827
		c-0.277,0-0.504-0.224-0.504-0.504V71.761z M77.992,75.089c1.1,0,1.83-0.61,1.83-1.536c0-0.983-0.624-1.486-1.873-1.486h-2.348
		v3.022H77.992z M78.017,79.03c1.54,0,2.174-0.465,2.174-1.603c0-1.022-0.717-1.54-2.121-1.54h-2.469v3.143H78.017z"/>
	<path class="st0" d="M82.7,71.76c0-0.277,0.227-0.504,0.504-0.504h5.133c0.266,0,0.411,0.131,0.411,0.373v0.078
		c0,0.252-0.146,0.373-0.411,0.373h-4.736v2.958h3.796c0.266,0,0.411,0.131,0.411,0.369v0.053c0,0.252-0.145,0.372-0.411,0.372
		h-3.796v3.186h4.817c0.266,0,0.411,0.117,0.411,0.358v0.078c0,0.252-0.146,0.387-0.411,0.387h-5.215
		c-0.277,0-0.504-0.227-0.504-0.507V71.76z"/>
	<path class="st0" d="M90.343,71.762c0-0.28,0.223-0.504,0.504-0.504h2.359c2.004,0,3.093,0.834,3.093,2.48
		c0,1.55-1.008,2.465-2.852,2.494l2.746,3.235c0.053,0.067-0.174,0.426-0.543,0.426c-0.174,0-0.358-0.078-0.557-0.319l-2.788-3.342
		H91.23v3.249c0,0.227-0.131,0.411-0.397,0.411h-0.106c-0.252,0-0.383-0.131-0.383-0.411V71.762z M93.287,75.462
		c1.419,0,2.082-0.677,2.082-1.699c0-1.114-0.717-1.696-2.135-1.696H91.23v3.395H93.287z"/>
	<path class="st0" d="M104.046,71.096c2.522,0,4.257,1.82,4.257,4.445c0,2.629-1.763,4.459-4.282,4.459
		c-2.522,0-4.26-1.806-4.26-4.434C99.761,72.941,101.538,71.096,104.046,71.096 M104.046,79.216c1.951,0,3.331-1.5,3.331-3.65
		c0-2.132-1.408-3.686-3.356-3.686c-1.951,0-3.331,1.511-3.331,3.661C100.69,77.691,102.095,79.216,104.046,79.216"/>
	<path class="st0" d="M109.99,71.76c0-0.277,0.227-0.504,0.504-0.504h4.803c0.266,0,0.412,0.131,0.412,0.373v0.078
		c0,0.252-0.146,0.373-0.412,0.373h-4.406v3.235h3.331c0.266,0,0.411,0.135,0.411,0.373v0.053c0,0.252-0.146,0.373-0.411,0.373
		h-3.331v3.37c0,0.277-0.131,0.408-0.397,0.408h-0.117c-0.255,0-0.387-0.131-0.387-0.408V71.76z"/>
	<path class="st0" d="M118.534,71.468c-0.025-0.067,0.238-0.266,0.518-0.266c0.213,0,0.426,0.092,0.543,0.411l2.692,7.283
		l2.707-7.283c0.121-0.319,0.319-0.411,0.518-0.411c0.266,0,0.532,0.199,0.504,0.266l-3.143,8.12
		c-0.092,0.224-0.213,0.33-0.596,0.33c-0.387,0-0.504-0.106-0.6-0.33L118.534,71.468z"/>
	<path class="st0" d="M127.41,71.615c0-0.266,0.135-0.411,0.387-0.411h0.117c0.266,0,0.397,0.145,0.397,0.411v7.868
		c0,0.277-0.131,0.408-0.397,0.408h-0.117c-0.252,0-0.387-0.131-0.387-0.408V71.615z"/>
	<path class="st0" d="M130.489,71.762c0-0.28,0.223-0.504,0.504-0.504h2.363c2.001,0,3.09,0.834,3.09,2.48
		c0,1.55-1.008,2.465-2.852,2.494l2.746,3.235c0.053,0.067-0.174,0.426-0.543,0.426c-0.174,0-0.358-0.078-0.557-0.319l-2.788-3.342
		h-1.075v3.249c0,0.227-0.131,0.411-0.397,0.411h-0.106c-0.252,0-0.383-0.131-0.383-0.411V71.762z M133.433,75.462
		c1.419,0,2.082-0.677,2.082-1.699c0-1.114-0.717-1.696-2.135-1.696h-2.004v3.395H133.433z"/>
	<path class="st0" d="M140.278,72.079h-2.692c-0.266,0-0.411-0.131-0.411-0.372v-0.064c0-0.252,0.145-0.387,0.411-0.387h6.289
		c0.263,0,0.408,0.135,0.408,0.387v0.064c0,0.241-0.145,0.372-0.408,0.372h-2.696v7.403c0,0.277-0.131,0.411-0.397,0.411h-0.121
		c-0.248,0-0.383-0.135-0.383-0.411V72.079z"/>
	<path class="st0" d="M145.493,71.615c0-0.266,0.131-0.411,0.383-0.411h0.121c0.266,0,0.397,0.145,0.397,0.411v4.775
		c0,1.845,0.823,2.799,2.455,2.799c1.66,0,2.455-0.929,2.455-2.81v-4.764c0-0.28,0.107-0.411,0.373-0.411h0.156
		c0.255,0,0.358,0.131,0.358,0.411v4.803c0,2.32-1.192,3.579-3.366,3.579c-2.164,0-3.331-1.231-3.331-3.54V71.615z"/>
	<path class="st0" d="M154.104,77.769c0.465,0.795,1.327,1.447,2.6,1.447c1.327,0,2.107-0.6,2.107-1.593
		c0-1.128-1.125-1.433-2.359-1.724c-1.302-0.305-2.639-0.731-2.639-2.441c0-1.355,1.231-2.363,2.877-2.363
		c1.777,0,2.838,0.929,2.838,1.486c0,0.383-0.504,0.582-0.529,0.543c-0.397-0.702-1.234-1.245-2.295-1.245
		c-1.195,0-2.018,0.621-2.018,1.55c0,1.103,0.905,1.327,2.203,1.632c1.366,0.319,2.813,0.823,2.813,2.522
		c0,1.458-1.181,2.412-2.983,2.412c-1.912,0-3.147-1.061-3.147-1.685C153.572,77.929,154.076,77.73,154.104,77.769"/>
	<path class="st0" d="M163.536,71.615c0-0.266,0.131-0.411,0.383-0.411h0.121c0.266,0,0.397,0.145,0.397,0.411v3.516h5.161v-3.516
		c0-0.266,0.131-0.411,0.383-0.411h0.121c0.266,0,0.397,0.145,0.397,0.411v7.868c0,0.277-0.131,0.408-0.397,0.408h-0.121
		c-0.252,0-0.383-0.131-0.383-0.408v-3.53h-5.161v3.53c0,0.277-0.131,0.408-0.397,0.408h-0.121c-0.252,0-0.383-0.131-0.383-0.408
		V71.615z"/>
	<path class="st0" d="M172.544,71.76c0-0.277,0.227-0.504,0.504-0.504h5.133c0.266,0,0.411,0.131,0.411,0.373v0.078
		c0,0.252-0.145,0.373-0.411,0.373h-4.736v2.958h3.796c0.266,0,0.411,0.131,0.411,0.369v0.053c0,0.252-0.145,0.372-0.411,0.372
		h-3.796v3.186h4.817c0.266,0,0.411,0.117,0.411,0.358v0.078c0,0.252-0.146,0.387-0.411,0.387h-5.215
		c-0.277,0-0.504-0.227-0.504-0.507V71.76z"/>
	<path class="st0" d="M182.52,71.509c0.092-0.227,0.252-0.333,0.677-0.333c0.426,0,0.585,0.106,0.678,0.333l3.143,8.116
		c0.028,0.067-0.238,0.266-0.518,0.266c-0.213,0-0.426-0.092-0.543-0.411l-0.944-2.441h-3.686l-0.93,2.441
		c-0.121,0.319-0.319,0.411-0.518,0.411c-0.266,0-0.529-0.199-0.504-0.266L182.52,71.509z M184.723,76.244l-1.55-4.033l-1.554,4.033
		H184.723z"/>
	<path class="st0" d="M188.266,71.615c0-0.28,0.131-0.411,0.383-0.411h0.121c0.266,0,0.397,0.131,0.397,0.411v7.389h4.14
		c0.266,0,0.411,0.131,0.411,0.383v0.067c0,0.238-0.145,0.387-0.411,0.387h-4.537c-0.277,0-0.504-0.227-0.504-0.507V71.615z"/>
	<path class="st0" d="M196.24,72.079h-2.692c-0.266,0-0.411-0.131-0.411-0.372v-0.064c0-0.252,0.145-0.387,0.411-0.387h6.286
		c0.266,0,0.412,0.135,0.412,0.387v0.064c0,0.241-0.146,0.372-0.412,0.372h-2.692v7.403c0,0.277-0.131,0.411-0.397,0.411h-0.121
		c-0.252,0-0.383-0.135-0.383-0.411V72.079z"/>
	<path class="st0" d="M201.586,71.615c0-0.266,0.131-0.411,0.383-0.411h0.121c0.266,0,0.397,0.145,0.397,0.411v3.516h5.161v-3.516
		c0-0.266,0.131-0.411,0.383-0.411h0.121c0.266,0,0.397,0.145,0.397,0.411v7.868c0,0.277-0.131,0.408-0.397,0.408h-0.121
		c-0.252,0-0.383-0.131-0.383-0.408v-3.53h-5.161v3.53c0,0.277-0.131,0.408-0.397,0.408h-0.121c-0.252,0-0.383-0.131-0.383-0.408
		V71.615z"/>
</g>
<g>
	<g id="g110_5_">
		<g id="g116_5_" transform="translate(322.7947,90.0996)">
			<path id="path118_5_" class="st1" d="M-43.4-30.1c0,0-4.6,14.8,14.8,18.2c0.3,0,9.9,0.5,13.4-4.9C-15.2-16.9-28.7-14.4-43.4-30.1
				"/>
		</g>
	</g>
	<g id="g120_5_" transform="matrix(0.91470804,0,0,0.91470804,-191.21559,-50.205964)">
		<g>
			<g>
				<g>
					<defs>
						<path id="SVGID_1_" d="M525.3,61.9c-19.9,10.3-27.4,34.4-16.8,53.8l0,0c10.6,19.4,35.3,26.7,55.2,16.4l0,0
							c19.9-10.3,27.4-34.5,16.8-53.8l0,0c-7.3-13.4-21.4-21.1-36-21.1l0,0C538,57.3,531.4,58.8,525.3,61.9"/>
					</defs>
					<clipPath id="SVGID_2_">
						<use xlink:href="#SVGID_1_"  style="overflow:visible;"/>
					</clipPath>
					<g id="g122_5_" class="st2">
						<g id="g128_5_">
							<g id="g130_5_">
								
									<radialGradient id="path138_1_" cx="316.2979" cy="123.1032" r="1.0144" gradientTransform="matrix(34.5111 0 0 -33.6664 -10360.4404 4232.6851)" gradientUnits="userSpaceOnUse">
									<stop  offset="0" style="stop-color:#A99AD4"/>
									<stop  offset="1" style="stop-color:#372983"/>
								</radialGradient>
								<path id="path138_5_" class="st3" d="M525.3,61.9c-19.9,10.3-27.4,34.4-16.8,53.8l0,0c10.6,19.4,35.3,26.7,55.2,16.4l0,0
									c19.9-10.3,27.4-34.5,16.8-53.8l0,0c-7.3-13.4-21.4-21.1-36-21.1l0,0C538,57.3,531.4,58.8,525.3,61.9"/>
							</g>
						</g>
					</g>
				</g>
			</g>
		</g>
	</g>
	<g id="g140_5_" transform="matrix(0.91470804,0,0,0.91470804,-191.21559,-50.205964)">
		<g>
			<g>
				<g>
					<defs>
						<path id="SVGID_3_" d="M513.3,68.4c0,0-13.6,12.7-11.2,33.8l0,0c2.1,17.8,38.3,14.7,53.7-7l0,0c0.6-0.8,2-2.8,2.3-5.8l0,0
							c0.3-3.2-2.9-4.5-5.1-2.1l0,0c-1.8,2.1-1.7,5.4-2.6,7.6l0,0c-5.7,14.1-42.9,25.6-46.5,7l0,0c0,0-2.6-17.5,12.6-32.6l0,0
							c0,0,11.3-11.2,28.8-10.7l0,0c20,0.6,28.5,11.9,31.5,16.7l0,0c6.1,9.6,12.5,35.1-10.3,45.3l0,0c-7.8,3.6-15.5,1-15.5,1l0,0
							c-13.7,23.2-30,15.4-30,15.4l0,0c8.6,6.1,21.6,5.3,21.6,5.3l0,0c0,0,40.8,2.6,46.6-40.4l0,0c0,0,0.1-0.9,0.1-2.4l0,0v-1.8
							c-0.2-8.7-3.2-28.5-25.5-38.8l0,0c0,0-7.9-4-18.9-4l0,0C535.6,54.9,524.1,57.8,513.3,68.4"/>
					</defs>
					<clipPath id="SVGID_4_">
						<use xlink:href="#SVGID_3_"  style="overflow:visible;"/>
					</clipPath>
					<g id="g142_5_" class="st4">
						<g id="g148_5_">
							<g id="g150_5_">
								
									<linearGradient id="path158_1_" gradientUnits="userSpaceOnUse" x1="295.7921" y1="115.5513" x2="296.8065" y2="115.5513" gradientTransform="matrix(11.6941 -24.098 -24.098 -11.6941 -141.2073 8602.6045)">
									<stop  offset="0" style="stop-color:#8B77C3"/>
									<stop  offset="1" style="stop-color:#CEC1E6"/>
								</linearGradient>
								<path id="path158_5_" class="st5" d="M513.3,68.4c0,0-13.6,12.7-11.2,33.8l0,0c2.1,17.8,38.3,14.7,53.7-7l0,0
									c0.6-0.8,2-2.8,2.3-5.8l0,0c0.3-3.2-2.9-4.5-5.1-2.1l0,0c-1.8,2.1-1.7,5.4-2.6,7.6l0,0c-5.7,14.1-42.9,25.6-46.5,7l0,0
									c0,0-2.6-17.5,12.6-32.6l0,0c0,0,11.3-11.2,28.8-10.7l0,0c20,0.6,28.5,11.9,31.5,16.7l0,0c6.1,9.6,12.5,35.1-10.3,45.3l0,0
									c-7.8,3.6-15.5,1-15.5,1l0,0c-13.7,23.2-30,15.4-30,15.4l0,0c8.6,6.1,21.6,5.3,21.6,5.3l0,0c0,0,40.8,2.6,46.6-40.4l0,0
									c0,0,0.1-0.9,0.1-2.4l0,0v-1.8c-0.2-8.7-3.2-28.5-25.5-38.8l0,0c0,0-7.9-4-18.9-4l0,0C535.6,54.9,524.1,57.8,513.3,68.4"/>
							</g>
						</g>
					</g>
				</g>
			</g>
		</g>
	</g>
</g>
<g>
	<path class="st6" d="M0,57.4V22.5h3.5v34.9H0z"/>
	<path class="st6" d="M21,57.4L6.7,22.5h3.9l12.3,30.6l12.4-30.6H39L24.5,57.4H21z"/>
	<path class="st6" d="M42.1,57.4V22.5h17.7v3.2H45.6v12.6h13.6v3.2H45.6v16L42.1,57.4L42.1,57.4z"/>
	<path class="st1" d="M88.5,57.4l-5.1-11.8H67.2l-5.1,11.8h-3.6l14.9-34.9h3.9l15,34.9H88.5z M75.4,26.5l-6.8,16h13.5L75.4,26.5z"/>
	<path class="st1" d="M113.6,57.4v-4h-0.1c-1.5,3-4.5,4.6-8.2,4.6c-5.5,0-11.2-2.9-11.2-11.7V31.6h3.3V46c0,5.9,2.5,9.1,7.9,9.1
		c4.4,0,8.1-3.1,8.1-9.3V31.6h3.3v25.8C116.7,57.4,113.6,57.4,113.6,57.4z"/>
	<path class="st1" d="M132.9,38c-0.2-2.5-1.7-4.1-3.9-4.1s-3.9,1.7-3.9,3.9c0,1.9,1.3,3.2,4.5,4.2c6.3,2.1,7.5,4.6,7.5,8.3
		c0,4.7-3.2,7.7-8.1,7.7c-4.4,0-7.9-3.2-7.9-8.1v-0.2h3.3c0,3.4,1.8,5.3,4.6,5.3c3,0,4.8-1.7,4.8-4.6c0-2.5-1.6-3.9-4.6-5
		c-4.5-1.7-7.4-2.9-7.4-7.4c0-4.2,3.1-7.2,7.4-7.2c3.9,0,7,2.9,7,7L132.9,38L132.9,38z"/>
	<path class="st1" d="M143.9,57.4V34.6h-5.4v-3h5.4v-9.1h3.3v9.1h6.2v3h-6.2v22.8C147.2,57.4,143.9,57.4,143.9,57.4z"/>
	<path class="st1" d="M156.3,57.4V31.6h3.3v3.7h0.1c1.1-2.7,3.1-4.2,7.3-4.4v3.5l0,0c-4.8,0.5-7.3,3.6-7.3,7.7v15.2h-3.4V57.4z"/>
	<path class="st1" d="M191.4,57.4v-4.5h-0.1c-2.1,3.2-5.9,5.1-10.1,5.1c-7.7,0-13.9-5.9-13.9-13.6s6.3-13.5,13.9-13.5
		c4.3,0,8,1.9,10.1,5.2h0.1v-4.5h3.3v25.8H191.4z M191.6,44.5c0-5.8-4.5-10.6-10.4-10.6s-10.5,4.5-10.5,10.7
		c0,5.9,4.5,10.5,10.6,10.5C187,55.1,191.6,50.3,191.6,44.5z"/>
	<path class="st1" d="M200.5,57.4V22.5h3.3v34.9H200.5z"/>
	<path class="st1" d="M209.6,28.4v-5.9h3.3v5.9H209.6z M209.6,57.4V31.6h3.3v25.8C212.9,57.4,209.6,57.4,209.6,57.4z"/>
	<path class="st1" d="M241.5,57.4v-4.5h-0.1c-2.1,3.2-5.9,5.1-10.1,5.1c-7.7,0-13.9-5.9-13.9-13.6s6.3-13.5,13.9-13.5
		c4.3,0,8,1.9,10.1,5.2h0.1v-4.5h3.3v25.8H241.5z M241.7,44.5c0-5.8-4.5-10.6-10.4-10.6s-10.5,4.5-10.5,10.7
		c0,5.9,4.5,10.5,10.6,10.5C237.1,55.1,241.7,50.3,241.7,44.5z"/>
</g>
</svg>
